<svg width="17" height="17" viewBox="0 0 17 17" fill="none" xmlns="http://www.w3.org/2000/svg">
<path fill-rule="evenodd" clip-rule="evenodd" d="M12.7979 10.9948C12.595 10.7919 12.5481 10.4194 12.6999 10.1694C12.6999 10.1694 12.7688 10.0766 12.9113 9.78552C13.3524 8.88426 13.6 7.87105 13.6 6.8C13.6 3.04446 10.5555 0 6.8 0C3.04446 0 0 3.04446 0 6.8C0 10.5555 3.04446 13.6 6.8 13.6C7.86726 13.6 8.8771 13.3541 9.77595 12.9159C10.0705 12.7723 10.1643 12.7027 10.1643 12.7027C10.4177 12.5512 10.7889 12.592 10.9948 12.7979L14.8234 16.6266C15.3214 17.1245 16.1286 17.1245 16.6266 16.6266C17.1245 16.1286 17.1245 15.3214 16.6266 14.8234L12.7979 10.9948ZM11.05 6.8C11.05 9.14721 9.14721 11.05 6.8 11.05C4.45279 11.05 2.55 9.14721 2.55 6.8C2.55 4.45279 4.45279 2.55 6.8 2.55C9.14721 2.55 11.05 4.45279 11.05 6.8Z" fill="#C7C7C7"/>
</svg>
