<svg xmlns="http://www.w3.org/2000/svg" width="12.123" height="14.531" viewBox="0 0 12.123 14.531">
  <g id="user" transform="translate(0 0)">
    <path id="Path_3" data-name="Path 3" d="M90.532,7a3.386,3.386,0,0,0,2.475-1.025A3.386,3.386,0,0,0,94.032,3.5a3.387,3.387,0,0,0-1.025-2.475,3.5,3.5,0,0,0-4.949,0A3.387,3.387,0,0,0,87.032,3.5a3.386,3.386,0,0,0,1.025,2.475A3.387,3.387,0,0,0,90.532,7Zm0,0" transform="translate(-84.562)" fill="#b8b8b8"/>
    <path id="Path_4" data-name="Path 4" d="M12.094,251.471a8.644,8.644,0,0,0-.118-.918,7.234,7.234,0,0,0-.226-.923,4.56,4.56,0,0,0-.379-.861,3.249,3.249,0,0,0-.572-.746,2.523,2.523,0,0,0-.822-.517,2.841,2.841,0,0,0-1.049-.19,1.065,1.065,0,0,0-.569.241c-.171.111-.37.24-.593.382a3.4,3.4,0,0,1-.767.338,2.977,2.977,0,0,1-1.876,0,3.388,3.388,0,0,1-.766-.338c-.221-.141-.42-.27-.593-.382a1.064,1.064,0,0,0-.569-.241,2.837,2.837,0,0,0-1.049.19,2.521,2.521,0,0,0-.822.517,3.249,3.249,0,0,0-.572.746,4.568,4.568,0,0,0-.379.861,7.252,7.252,0,0,0-.226.923,8.614,8.614,0,0,0-.118.918c-.019.278-.029.567-.029.858a2.413,2.413,0,0,0,.717,1.826,2.58,2.58,0,0,0,1.847.674h7a2.579,2.579,0,0,0,1.847-.674,2.412,2.412,0,0,0,.717-1.826c0-.293-.01-.582-.029-.858Zm0,0" transform="translate(0 -240.297)" fill="#b8b8b8"/>
  </g>
</svg>
